{
	"asset":{
		"generator":"Khronos glTF Blender I/O v4.3.47",
		"version":"2.0"
	},
	"scene":0,
	"scenes":[
		{
			"name":"Scene",
			"nodes":[
				0,
				1,
				2
			]
		}
	],
	"nodes":[
		{
			"mesh":0,
			"name":"Cube",
			"scale":[
				-0.6265048980712891,
				-0.22888699173927307,
				-1.9181292057037354
			],
			"translation":[
				0.13537900149822235,
				0.21493831276893616,
				-0.07257378101348877
			]
		},
		{
			"mesh":1,
			"name":"Texto",
			"rotation":[
				0.5038104057312012,
				0.494340181350708,
				-0.5194621086120605,
				0.4816243052482605
			],
			"translation":[
				0.9011268019676208,
				0.008657841011881828,
				0.001672506332397461
			]
		},
		{
			"mesh":2,
			"name":"Toroide.001",
			"rotation":[
				-0.7064365148544312,
				-0.13809016346931458,
				0.1093626394867897,
				0.6855059862136841
			],
			"translation":[
				-0.02814316749572754,
				1.5309802293777466,
				0.146209716796875
			]
		}
	],
	"materials":[
		{
			"doubleSided":true,
			"name":"Material",
			"pbrMetallicRoughness":{
				"baseColorFactor":[
					0.23382681608200073,
					0.23382681608200073,
					0.23382681608200073,
					1
				],
				"metallicFactor":0,
				"roughnessFactor":0.5
			}
		},
		{
			"doubleSided":true,
			"name":"Material.004",
			"pbrMetallicRoughness":{
				"baseColorFactor":[
					0.8002121448516846,
					0.7061095237731934,
					0.026485398411750793,
					1
				],
				"metallicFactor":20,
				"roughnessFactor":10
			}
		}
	],
	"meshes":[
		{
			"name":"Cube",
			"primitives":[
				{
					"attributes":{
						"POSITION":0,
						"NORMAL":1,
						"TEXCOORD_0":2
					},
					"indices":3,
					"material":0
				}
			]
		},
		{
			"name":"Texto.001",
			"primitives":[
				{
					"attributes":{
						"POSITION":4,
						"NORMAL":5,
						"TEXCOORD_0":6
					},
					"indices":7,
					"material":1
				}
			]
		},
		{
			"name":"Toroide.001",
			"primitives":[
				{
					"attributes":{
						"POSITION":8,
						"NORMAL":9,
						"TEXCOORD_0":10
					},
					"indices":11
				}
			]
		}
	],
	"accessors":[
		{
			"bufferView":0,
			"componentType":5126,
			"count":24,
			"max":[
				1,
				1,
				1
			],
			"min":[
				-1,
				-1,
				-1
			],
			"type":"VEC3"
		},
		{
			"bufferView":1,
			"componentType":5126,
			"count":24,
			"type":"VEC3"
		},
		{
			"bufferView":2,
			"componentType":5126,
			"count":24,
			"type":"VEC2"
		},
		{
			"bufferView":3,
			"componentType":5123,
			"count":36,
			"type":"SCALAR"
		},
		{
			"bufferView":4,
			"componentType":5126,
			"count":10275,
			"max":[
				1.8058192729949951,
				0.029999999329447746,
				0.0103177884593606
			],
			"min":[
				-1.6560051441192627,
				-0.029999999329447746,
				-0.5633512139320374
			],
			"type":"VEC3"
		},
		{
			"bufferView":5,
			"componentType":5126,
			"count":10275,
			"type":"VEC3"
		},
		{
			"bufferView":6,
			"componentType":5126,
			"count":10275,
			"type":"VEC2"
		},
		{
			"bufferView":7,
			"componentType":5123,
			"count":30684,
			"type":"SCALAR"
		},
		{
			"bufferView":8,
			"componentType":5126,
			"count":4608,
			"max":[
				0.7448828220367432,
				0.2584887742996216,
				0.8715189695358276
			],
			"min":[
				-0.5599528551101685,
				-0.19755256175994873,
				-1.2643827199935913
			],
			"type":"VEC3"
		},
		{
			"bufferView":9,
			"componentType":5126,
			"count":4608,
			"type":"VEC3"
		},
		{
			"bufferView":10,
			"componentType":5126,
			"count":4608,
			"type":"VEC2"
		},
		{
			"bufferView":11,
			"componentType":5123,
			"count":6912,
			"type":"SCALAR"
		}
	],
	"bufferViews":[
		{
			"buffer":0,
			"byteLength":288,
			"byteOffset":0,
			"target":34962
		},
		{
			"buffer":0,
			"byteLength":288,
			"byteOffset":288,
			"target":34962
		},
		{
			"buffer":0,
			"byteLength":192,
			"byteOffset":576,
			"target":34962
		},
		{
			"buffer":0,
			"byteLength":72,
			"byteOffset":768,
			"target":34963
		},
		{
			"buffer":0,
			"byteLength":123300,
			"byteOffset":840,
			"target":34962
		},
		{
			"buffer":0,
			"byteLength":123300,
			"byteOffset":124140,
			"target":34962
		},
		{
			"buffer":0,
			"byteLength":82200,
			"byteOffset":247440,
			"target":34962
		},
		{
			"buffer":0,
			"byteLength":61368,
			"byteOffset":329640,
			"target":34963
		},
		{
			"buffer":0,
			"byteLength":55296,
			"byteOffset":391008,
			"target":34962
		},
		{
			"buffer":0,
			"byteLength":55296,
			"byteOffset":446304,
			"target":34962
		},
		{
			"buffer":0,
			"byteLength":36864,
			"byteOffset":501600,
			"target":34962
		},
		{
			"buffer":0,
			"byteLength":13824,
			"byteOffset":538464,
			"target":34963
		}
	],
	"buffers":[
		{
			"byteLength":552288,
			"uri":"escultura.bin"
		}
	]
}
